<svg xmlns="http://www.w3.org/2000/svg" viewBox="0 0 24 24" fill="none" stroke="currentColor" stroke-width="1.8" stroke-linecap="round" stroke-linejoin="round"><circle cx="12" cy="12" r="3"/><path d="M19.4 15a1.65 1.65 0 0 0 .33 1.82l.06.06-2.12 2.12-.06-.06a1.65 1.65 0 0 0-1.82-.33 1.65 1.65 0 0 0-1 1.51V20h-3v-.09a1.65 1.65 0 0 0-1-1.51 1.65 1.65 0 0 0-1.82.33l-.06.06-2.12-2.12.06-.06A1.65 1.65 0 0 0 5 15.79a1.65 1.65 0 0 0-1.51-1H3v-3h.49A1.65 1.65 0 0 0 5 10.79a1.65 1.65 0 0 0-.33-1.82l-.06-.06L6.73 6.8l.06.06A1.65 1.65 0 0 0 8.61 7.2a1.65 1.65 0 0 0 1-1.51V5.6h3v.09a1.65 1.65 0 0 0 1 1.51 1.65 1.65 0 0 0 1.82-.33l.06-.06 2.12 2.12-.06.06a1.65 1.65 0 0 0-.33 1.82 1.65 1.65 0 0 0 1.51 1H21v3h-.49A1.65 1.65 0 0 0 19.4 15z"/></svg>