<svg xmlns="http://www.w3.org/2000/svg" viewBox="0 0 24 24" fill="#25D366"><path d="M12.01 2C6.48 2 2 6.49 2 12.02C2 13.84 2.49 15.61 3.42 17.13L2 22L6.96 20.67C8.42 21.47 10.06 21.89 11.75 21.89H11.76C17.29 21.89 21.77 17.41 21.77 11.88C21.77 9.15 20.7 6.61 18.84 4.74C16.98 2.87 14.44 2 11.72 2H12.01ZM17.27 15.02C17.02 15.72 16.03 16.29 15.34 16.43C14.89 16.52 14.33 16.61 12.28 15.77C9.69 14.71 8.01 12.11 7.89 11.95C7.76 11.79 6.88 10.63 6.88 9.42C6.88 8.21 7.5 7.6 7.74 7.36C7.94 7.15 8.24 7.07 8.52 7.07C8.61 7.07 8.69 7.07 8.77 7.08C8.94 7.08 9.07 7.09 9.14 7.11C9.36 7.16 9.53 7.27 9.66 7.55C9.82 7.91 10.19 8.81 10.24 8.93C10.29 9.06 10.34 9.23 10.24 9.41C10.14 9.58 10.07 9.66 9.94 9.8C9.81 9.95 9.66 10.12 9.51 10.26C9.37 10.39 9.21 10.54 9.39 10.85C9.57 11.16 10.21 12.21 11.16 13.06C12.38 14.15 13.38 14.47 13.78 14.63C14.03 14.73 14.34 14.67 14.53 14.46C14.66 14.32 14.82 14.07 15.02 13.77C15.22 13.48 15.42 13.52 15.75 13.64C16.08 13.76 17.78 14.61 17.97 14.71C18.16 14.81 18.28 14.86 18.33 14.94C18.38 15.02 18.38 15.35 18.13 16.03H17.27Z"/></svg>