<svg xmlns="http://www.w3.org/2000/svg" viewBox="0 0 24 24" fill="none" stroke="currentColor" stroke-width="1.8" stroke-linecap="round" stroke-linejoin="round"><path d="M21 11.5a8.5 8.5 0 0 1-12.6 7.45L3 20l1.2-5.1A8.5 8.5 0 1 1 21 11.5z"/><path d="M8.3 7.8c.2-.4.4-.4.7-.4h.5c.2 0 .4.1.5.4l.8 1.8c.1.3.1.5-.1.7l-.7.8c-.2.2-.2.4 0 .7.5.9 1.2 1.7 2.1 2.3.8.6 1.5.9 1.8 1 .3.1.5 0 .7-.2l.9-1c.2-.2.4-.3.7-.2l1.8.8c.3.1.4.3.4.5 0 .3-.1 1.4-.8 2-.7.6-1.6.8-2.6.6-1-.2-2.3-.7-3.9-1.6-1.8-1-3.1-2.4-4-3.8-.9-1.4-1.2-2.6-1.1-3.4.1-.5.2-.8.3-1z"/></svg>